<svg xmlns="http://www.w3.org/2000/svg" viewBox="0 0 532.74 176.87"><title>logoGazetteDrouot</title><path d="M173.5,166.21h11.77v66.48H223.1v11.12H173.5Z" transform="translate(-171.72 -163.82)" fill="#fff" stroke="#fff" stroke-width="3.46"/><path d="M259.15,226.48H229.72l-6,17.33H211.3l28.23-77.6h9.81l28.23,77.6H265.15ZM255.77,216l-11.22-33.9h-.22L233.1,216Z" transform="translate(-171.72 -163.82)" fill="#fff" stroke="#fff" stroke-width="3.46"/><path d="M326.93,201.08h27.58v15.81a27.86,27.86,0,0,1-52,13.62c-2.51-4.58-3.38-6.86-3.38-25.5s.87-20.93,3.38-25.51a27.58,27.58,0,0,1,24.3-13.95c14.72,0,24.85,10.36,27.25,23H341.65a15.71,15.71,0,0,0-14.83-11.23,14.94,14.94,0,0,0-12,5.67c-3.05,3.92-3.92,6.1-3.92,22s.87,18.09,3.92,22a14.92,14.92,0,0,0,12,5.67c8.94,0,15.92-6.76,15.92-16.46v-4H326.93Z" transform="translate(-171.72 -163.82)" fill="#fff" stroke="#fff" stroke-width="3.46"/><path d="M401.47,226.48H372l-6,17.33H353.62l28.23-77.6h9.81l28.23,77.6H407.46ZM398.09,216l-11.22-33.9h-.22L375.42,216Z" transform="translate(-171.72 -163.82)" fill="#fff" stroke="#fff" stroke-width="3.46"/><path d="M418.45,234l35.2-57.33H419.86V166.21H468V175l-35.32,57.66H468v11.12H418.45Z" transform="translate(-171.72 -163.82)" fill="#fff" stroke="#fff" stroke-width="3.46"/><path d="M474.77,166.21h49.6v11.11H486.55v22.13h32.26v10.46H486.55v22.78h37.82v11.12h-49.6Z" transform="translate(-171.72 -163.82)" fill="#fff" stroke="#fff" stroke-width="3.46"/><path d="M552.31,177.33H531.06V166.21h54.28v11.12H564.08v66.48H552.31Z" transform="translate(-171.72 -163.82)" fill="#fff" stroke="#fff" stroke-width="3.46"/><path d="M613.21,177.33H592V166.21H646.3v11.13H625.09L625,243.81H613.27Z" transform="translate(-171.72 -163.82)" fill="#fff" stroke="#fff" stroke-width="3.46"/><path d="M653,166.21h49.75v11.11H664.79v22.13h32.37v10.46H664.79v22.78h37.94v11.12H653Z" transform="translate(-171.72 -163.82)" fill="#fff" stroke="#fff" stroke-width="3.46"/><path d="M173.45,256.25h28.69c10.83,0,19.7,4.83,25,13.82,4,6.91,4.37,10,4.37,27.19,0,18.43-.92,21.66-4.6,27.42-4.84,7.6-13.37,13.59-25.58,13.59H173.45Zm12.44,70.27h14.86c7,0,12-2.42,15.21-7.14,2.77-4.15,3.11-6.45,3.11-21.66,0-14.75-.34-18.32-3.68-22.81-3.81-5.19-7.95-6.91-14.64-6.91H185.89Z" transform="translate(-171.72 -163.82)" fill="#fff" stroke="#fff" stroke-width="3.46"/><path d="M241.29,256.25h32c6.91,0,12.33,1.61,16.71,5.41a23.14,23.14,0,0,1,8.18,17.51c0,10.6-6,19.24-15.9,22.7l19,36.4H286.57l-16.94-35H253.74v35H241.29Zm12.45,35.94h18.77c9.34,0,13.94-6.11,13.94-13,0-4.26-1.61-7.49-4.14-9.33-2.31-1.73-4.84-2.54-9.1-2.54H253.74Z" transform="translate(-171.72 -163.82)" fill="#fff" stroke="#fff" stroke-width="3.46"/><path d="M309.54,270.3a29.75,29.75,0,0,1,51.38,0c2.65,4.84,3.57,7.26,3.57,27s-.92,22.12-3.57,27a29.76,29.76,0,0,1-51.38,0c-2.65-4.84-3.57-7.26-3.57-27S306.89,275.14,309.54,270.3Zm13,50.23a16.39,16.39,0,0,0,25.34,0c3.23-4.15,4.15-6.45,4.15-23.27s-.92-19.13-4.15-23.27a16.39,16.39,0,0,0-25.34,0c-3.23,4.14-4.15,6.45-4.15,23.27S319.33,316.38,322.56,320.53Z" transform="translate(-171.72 -163.82)" fill="#fff" stroke="#fff" stroke-width="3.46"/><path d="M374.68,256.25h12.44v52.87c0,11.29,7.26,17.4,16.71,17.4s16.7-6.11,16.7-17.4V256.25H433v54.26c0,17.05-12.9,28.45-29.14,28.45s-29.15-11.4-29.15-28.45Z" transform="translate(-171.72 -163.82)" fill="#fff" stroke="#fff" stroke-width="3.46"/><path d="M446.58,270.3a29.75,29.75,0,0,1,51.38,0c2.65,4.84,3.57,7.26,3.57,27s-.92,22.12-3.57,27a29.76,29.76,0,0,1-51.38,0c-2.65-4.84-3.57-7.26-3.57-27S443.93,275.14,446.58,270.3Zm13,50.23a16.39,16.39,0,0,0,25.34,0c3.23-4.15,4.15-6.45,4.15-23.27s-.92-19.13-4.15-23.27a16.39,16.39,0,0,0-25.34,0c-3.23,4.14-4.15,6.45-4.15,23.27S456.37,316.38,459.6,320.53Z" transform="translate(-171.72 -163.82)" fill="#fff" stroke="#fff" stroke-width="3.46"/><path d="M529.15,267.3H506.68V256.25h57.37V267.3H541.59v71H529.15Z" transform="translate(-171.72 -163.82)" fill="#fff" stroke="#fff" stroke-width="3.46"/></svg>