<?xml version="1.0" encoding="utf-8"?>
<!-- Generator: Adobe Illustrator 21.0.2, SVG Export Plug-In . SVG Version: 6.00 Build 0)  -->
<svg version="1.1" id="Calque_1" xmlns="http://www.w3.org/2000/svg" xmlns:xlink="http://www.w3.org/1999/xlink" x="0px" y="0px"
	 viewBox="0 0 532.7 176.9" style="enable-background:new 0 0 532.7 176.9;" xml:space="preserve">
<style type="text/css">
	.st0{stroke:#000000;stroke-width:3.46;}
</style>
<title>logoGazetteDrouot</title>
<path class="st0" d="M1.8,2.4h11.8v66.5h37.8V80H1.8V2.4z"/>
<path class="st0" d="M87.4,62.7H58L52,80H39.6L67.8,2.4h9.8L105.9,80H93.4L87.4,62.7z M84.1,52.2L72.8,18.3h-0.2L61.4,52.2H84.1z"/>
<path class="st0" d="M155.2,37.3h27.6v15.8c-0.2,15.4-12.8,27.7-28.1,27.6c-9.9-0.1-18.9-5.4-23.9-14c-2.5-4.6-3.4-6.9-3.4-25.5
	s0.9-20.9,3.4-25.5c5-8.7,14.3-14.1,24.3-13.9c14.7,0,24.9,10.4,27.3,23h-12.4c-2-6.6-8-11.1-14.8-11.2c-4.7-0.1-9.1,2-12,5.7
	c-3,3.9-3.9,6.1-3.9,22s0.9,18.1,3.9,22c2.9,3.7,7.3,5.8,12,5.7c8.9,0,15.9-6.8,15.9-16.5v-4h-15.8V37.3z"/>
<path class="st0" d="M229.8,62.7h-29.5l-6,17.3h-12.4l28.2-77.6h9.8L248.2,80h-12.4L229.8,62.7z M226.4,52.2l-11.2-33.9h-0.2
	l-11.2,33.9H226.4z"/>
<path class="st0" d="M246.7,70.2l35.2-57.3h-33.8V2.4h48.1v8.8L261,68.8h35.3V80h-49.5V70.2z"/>
<path class="st0" d="M303,2.4h49.6v11.1h-37.8v22.1h32.3v10.5h-32.3v22.8h37.8V80H303V2.4z"/>
<path class="st0" d="M380.6,13.5h-21.3V2.4h54.3v11.1h-21.3V80h-11.8V13.5z"/>
<path class="st0" d="M441.5,13.5h-21.2V2.4h54.3v11.1h-21.2L453.3,80h-11.7L441.5,13.5z"/>
<path class="st0" d="M481.3,2.4H531v11.1h-38v22.1h32.4v10.5h-32.4v22.8H531V80h-49.7V2.4z"/>
<path class="st0" d="M1.7,92.4h28.7c10.8,0,19.7,4.8,25,13.8c4,6.9,4.4,10,4.4,27.2c0,18.4-0.9,21.7-4.6,27.4
	c-4.8,7.6-13.4,13.6-25.6,13.6H1.7V92.4z M14.2,162.7H29c7,0,12-2.4,15.2-7.1c2.8-4.1,3.1-6.5,3.1-21.7c0-14.8-0.3-18.3-3.7-22.8
	c-3.8-5.2-7.9-6.9-14.6-6.9H14.2V162.7z"/>
<path class="st0" d="M69.6,92.4h32c6.9,0,12.3,1.6,16.7,5.4c5.2,4.4,8.1,10.8,8.2,17.5c0,10.6-6,19.2-15.9,22.7l19,36.4h-14.7
	l-16.9-35H82v35H69.6V92.4z M82,128.4h18.8c9.3,0,13.9-6.1,13.9-13c0-4.3-1.6-7.5-4.1-9.3c-2.3-1.7-4.8-2.5-9.1-2.5H82L82,128.4z"/>
<path class="st0" d="M137.8,106.5c8.3-14.2,26.5-19,40.7-10.7c4.4,2.6,8.1,6.3,10.7,10.7c2.6,4.8,3.6,7.3,3.6,27s-0.9,22.1-3.6,27
	c-8.3,14.2-26.5,19-40.7,10.7c-4.4-2.6-8.1-6.3-10.7-10.7c-2.6-4.8-3.6-7.3-3.6-27S135.2,111.3,137.8,106.5z M150.8,156.7
	c5.7,7,16.1,8,23.1,2.3c0.8-0.7,1.6-1.4,2.3-2.3c3.2-4.1,4.1-6.5,4.1-23.3s-0.9-19.1-4.1-23.3c-5.7-7-16.1-8-23.1-2.3
	c-0.8,0.7-1.6,1.4-2.3,2.3c-3.2,4.1-4.1,6.5-4.1,23.3S147.6,152.6,150.8,156.7L150.8,156.7z"/>
<path class="st0" d="M203,92.4h12.4v52.9c0,11.3,7.3,17.4,16.7,17.4s16.7-6.1,16.7-17.4V92.4h12.5v54.3c0,17-12.9,28.5-29.1,28.5
	S203,163.7,203,146.7L203,92.4z"/>
<path class="st0" d="M274.9,106.5c8.3-14.2,26.5-19,40.7-10.7c4.4,2.6,8.1,6.3,10.7,10.7c2.6,4.8,3.6,7.3,3.6,27s-0.9,22.1-3.6,27
	c-8.3,14.2-26.5,19-40.7,10.7c-4.4-2.6-8.1-6.3-10.7-10.7c-2.6-4.8-3.6-7.3-3.6-27S272.2,111.3,274.9,106.5z M287.9,156.7
	c5.7,7,16.1,8,23.1,2.3c0.8-0.7,1.6-1.4,2.3-2.3c3.2-4.1,4.1-6.5,4.1-23.3s-0.9-19.1-4.1-23.3c-5.7-7-16.1-8-23.1-2.3
	c-0.8,0.7-1.6,1.4-2.3,2.3c-3.2,4.1-4.1,6.5-4.1,23.3S284.6,152.6,287.9,156.7L287.9,156.7z"/>
<path class="st0" d="M357.4,103.5H335v-11h57.4v11h-22.5v71h-12.4V103.5z"/>
</svg>
