<?xml version="1.0" encoding="UTF-8"?>
<svg width="33px" height="33px" viewBox="0 0 33 33" version="1.1" xmlns="http://www.w3.org/2000/svg" xmlns:xlink="http://www.w3.org/1999/xlink">
    <!-- Generator: sketchtool 51.2 (57519) - http://www.bohemiancoding.com/sketch -->
    <title>9D9C23F0-CC9C-450B-8B0F-9C096EF54933-543-0000039107A146CA</title>
    <desc>Created with sketchtool.</desc>
    <defs></defs>
    <g id="DESKTOP" stroke="none" stroke-width="1" fill="none" fill-rule="evenodd">
        <g id="01---HP" transform="translate(-1258.000000, -18.000000)">
            <g id="HEADER">
                <g id="profile">
                    <g transform="translate(1259.000000, 19.000000)">
                        <circle id="Oval" stroke="#FFFFFF" fill="#FFFFFF" cx="15.5" cy="15.5" r="15.5"></circle>
                        <path d="M15.350632,14.9682974 C17.8269442,14.9682974 19.8354796,12.9597323 19.8354796,10.4834498 C19.8354796,8.00716729 17.8269145,6.01234201 15.350632,6.01234201 C12.8743494,6.01234201 10.8657844,8.02090706 10.8657844,10.4834498 C10.8657844,12.9459926 12.8743197,14.9682974 15.350632,14.9682974 Z M15.350632,7.18171004 C17.1665725,7.18171004 18.6523717,8.66747955 18.6523717,10.4834498 C18.6523717,12.2994201 17.1665725,13.7851599 15.350632,13.7851599 C13.5346914,13.7851599 12.0488922,12.2993903 12.0488922,10.4834201 C12.0488922,8.66744981 13.5346617,7.18171004 15.350632,7.18171004 Z" id="Shape" fill="#0B2330" fill-rule="nonzero"></path>
                        <path d="M7.5915539,21.9707063 L23.1647286,21.9707063 C23.4948996,21.9707063 23.7562825,21.7093234 23.7562825,21.3791524 C23.7562825,18.283777 21.2387212,15.7524461 18.1295762,15.7524461 L12.6267063,15.7524461 C9.53133086,15.7524461 7,18.2700074 7,21.3791524 C7,21.7093234 7.2613829,21.9707063 7.5915539,21.9707063 Z M12.6267063,16.9355539 L18.1295762,16.9355539 C20.3857546,16.9355539 22.242974,18.613948 22.5318959,20.7875688 L8.22438662,20.7875688 C8.51327881,18.6277175 10.3705279,16.9355539 12.6267063,16.9355539 Z" id="Shape" fill="#0B2330" fill-rule="nonzero"></path>
                    </g>
                </g>
            </g>
        </g>
    </g>
</svg>