<?xml version="1.0" encoding="utf-8"?>
<!-- Generator: Adobe Illustrator 21.0.2, SVG Export Plug-In . SVG Version: 6.00 Build 0)  -->
<svg version="1.1" id="Calque_1" xmlns="http://www.w3.org/2000/svg" xmlns:xlink="http://www.w3.org/1999/xlink" x="0px" y="0px"
	 viewBox="0 0 62.3 56" style="enable-background:new 0 0 62.3 56;" xml:space="preserve">
<style type="text/css">
	.st0{fill:#0B2230;}
</style>
<path class="st0" d="M62.3,24h-10V0h-42v24h-10v27h5v5h52v-5h5V24z M12.3,2h38v22h-38V2z M55.3,54h-48v-8h48V54z M60.3,49h-3v-5h-52
	v5h-3V26h8h42h8V49z M17.3,7h28v2h-28V7z M17.3,12h28v2h-28V12z M17.3,17h28v2h-28V17z M5.3,29h3v3h-3V29z"/>
</svg>
