<?xml version="1.0" encoding="utf-8"?>
<!-- Generator: Adobe Illustrator 17.1.0, SVG Export Plug-In . SVG Version: 6.00 Build 0)  -->
<!DOCTYPE svg PUBLIC "-//W3C//DTD SVG 1.1 Tiny//EN" "http://www.w3.org/Graphics/SVG/1.1/DTD/svg11-tiny.dtd">
<svg version="1.1" baseProfile="tiny" id="Layer_1" xmlns="http://www.w3.org/2000/svg" xmlns:xlink="http://www.w3.org/1999/xlink"
	 x="0px" y="0px" viewBox="0 0 69 69" xml:space="preserve">
<g>
	<circle display="none" fill="#FF0036" cx="34.5" cy="34.5" r="34.5"/>
	<path fill="#FFFFFF" d="M29.7,36.7c2.8-2.3,4.7-5.6,5.1-9.4c-5.6-1.2-12-3.7-18.3-7.4c-2.2-1.3-4.3-2.6-6.2-4
		c-2.4,2.6-3.9,6-3.9,9.8c0,2.4,0.6,4.7,1.7,6.8c5,0.1,10.6,1,16.4,2.6C26.3,35.5,28,36.1,29.7,36.7z"/>
	<path fill="#2D2D2D" d="M32.7,29.1c0-0.8-0.1-1.6-0.3-2.3c-4.7-1.3-9.9-3.4-15-6.3c-2.9,1.8-4.9,5-4.9,8.6c0,1.3,0.3,2.6,0.7,3.8
		c3.6,0.4,7.4,1.1,11.2,2.2c1.7,0.5,3.3,1,4.9,1.5C31.4,34.7,32.7,32.1,32.7,29.1z"/>
	<circle fill="#FFFFFF" cx="20.6" cy="26.3" r="3"/>
	<g>
		<path fill="#FFFFFF" d="M60.2,32.6c1.1-1.8,1.7-4,1.7-6.2c0-2.6-0.8-5-2.1-7c-2.8,1.7-5.9,3.3-9.3,4.6c-4.7,1.8-9.3,3-13.6,3.6
			c0.3,3.7,2.3,7,5.2,9c3.2-1.2,6.7-2.3,10.4-3C55.2,33,57.7,32.7,60.2,32.6z"/>
		<path fill="#2D2D2D" d="M51,23.7c-0.2,0.1-0.4,0.2-0.6,0.2c-3.3,1.3-6.6,2.3-9.7,2.9c-0.3,0.8-0.5,1.6-0.5,2.5
			c0,2.9,1.8,5.3,4.3,6.3c2.5-0.8,5.2-1.5,8-2.1c0.9-1.2,1.5-2.6,1.5-4.2C54,27,52.8,24.9,51,23.7z"/>
		<circle fill="#FFFFFF" cx="45.9" cy="28.7" r="2.5"/>
	</g>
	<g>
		<path fill="#631B1A" d="M11.3,45.1c0.9-2.7,3.8-3.6,9-0.9c5.2,2.8,13.6,3.1,18.6,0.9c5.6-2.4,12.4-5.8,14.9-3.2
			c1.6,1.7,1.9,1.9,2.8,4.9c0.8,2.8,0.1,6.6-2.1,10c-2.2,3.3-6.1,4.1-12.3,2.5c-6.3-1.6-15.9-1-21.7-0.7c-4.7,0.2-7.4,0-9.5-5.2
			C9.6,50.3,10.6,47.2,11.3,45.1z"/>
		<path fill="#FFFFFF" d="M18.9,51c0.6-0.1,1.2-0.2,1.7-0.4c1.3,0.8,2.9,1.1,4.5,0.9c1.2-0.1,2.4-0.6,3.4-1.2c1,0.4,2.2,0.6,3.4,0.5
			c1.6-0.2,3.1-0.9,4.1-2c1.3,0.7,2.9,1,4.5,0.8c1.6-0.2,3-0.8,4.2-1.7c0.8,0.2,1.7,0.2,2.6,0.2c3.3-0.4,6-2.8,6.8-5.8
			c-0.1-0.1-0.2-0.2-0.3-0.3c-2.5-2.6-9.4,0.8-14.9,3.2c-5,2.2-13.4,1.9-18.6-0.9c-5-2.7-7.9-1.9-8.9,0.6c0,0,0,0.1,0,0.1
			C11.8,48.7,15.2,51.4,18.9,51z"/>
		<path fill="#FFFFFF" d="M20.4,58.7c5.8-0.3,15.4-0.9,21.7,0.7c6.2,1.5,10.2,0.8,12.3-2.5c0.8-1.2,1.4-2.5,1.8-3.7
			c-1.7-1.8-4.1-2.7-6.7-2.4c-0.9,0.1-1.7,0.4-2.5,0.7c-1.3-0.7-2.9-1-4.4-0.8c-1.6,0.2-3,0.8-4.2,1.8c-1.3-0.8-2.8-1.2-4.5-1
			c-1.2,0.1-2.3,0.6-3.2,1.3c-1.1-0.4-2.3-0.6-3.5-0.4c-1.6,0.2-3.1,0.9-4.2,1.9c-0.6-0.1-1.2-0.1-1.8,0c-2.6,0.3-4.7,2.1-5.6,4.4
			C17,58.8,18.5,58.8,20.4,58.7z"/>
	</g>
	<path fill="#2D2D2D" d="M3.5,2.4c1.6-0.1,3.3,0,4.9,0.3c1.6,0.3,3.2,0.8,4.8,1.4c3.1,1.4,5.8,3.5,8.1,5.9c2.3,2.4,4.3,5,6.5,7.1
		c2.1,2.1,4.5,3.7,7.2,4.1c2.7,0.5,5.4-0.1,7.9-1.6c2.6-1.4,4.8-3.6,7.4-5.6c1.3-1,2.6-2,4.2-2.9c1.5-0.8,3.2-1.5,4.9-1.8
		c1.7-0.3,3.5-0.2,5.1,0.3c1.6,0.4,3.1,1.1,4.5,2c-3.1-0.9-6.3-1.3-9.2-0.3c-2.8,0.9-5.2,2.9-7.4,5.1c-1.1,1.1-2.3,2.2-3.5,3.3
		c-1.2,1.1-2.5,2.2-4,3.2c-1.5,0.9-3.2,1.7-5,2.1c-1.8,0.4-3.7,0.4-5.5,0.1c-1.8-0.3-3.6-1-5.2-2c-1.6-1-2.9-2.2-4-3.4
		c-2.3-2.6-4.1-5.2-6-7.6c-2-2.4-4.1-4.6-6.7-6.3C11,4.9,9.6,4.3,8.1,3.7C6.7,3.1,5.1,2.7,3.5,2.4z"/>
</g>
</svg>
